<?xml version="1.0" encoding="UTF-8" standalone="no"?>
<svg
   xmlns:dc="http://purl.org/dc/elements/1.1/"
   xmlns:cc="http://creativecommons.org/ns#"
   xmlns:rdf="http://www.w3.org/1999/02/22-rdf-syntax-ns#"
   xmlns:svg="http://www.w3.org/2000/svg"
   xmlns="http://www.w3.org/2000/svg"
   xmlns:sodipodi="http://sodipodi.sourceforge.net/DTD/sodipodi-0.dtd"
   xmlns:inkscape="http://www.inkscape.org/namespaces/inkscape"
   viewBox="0 0 50 50"
   id="svg2"
   version="1.1"
   inkscape:version="0.91 r13725"
   sodipodi:docname="complete.svg"
   width="50"
   height="50">
  <metadata
     id="metadata46">
    <rdf:RDF>
      <cc:Work
         rdf:about="">
        <dc:format>image/svg+xml</dc:format>
        <dc:type
           rdf:resource="http://purl.org/dc/dcmitype/StillImage" />
        <dc:title />
      </cc:Work>
    </rdf:RDF>
  </metadata>
  <sodipodi:namedview
     pagecolor="#ffffff"
     bordercolor="#666666"
     borderopacity="1"
     objecttolerance="10"
     gridtolerance="10"
     guidetolerance="10"
     inkscape:pageopacity="0"
     inkscape:pageshadow="2"
     inkscape:window-width="1366"
     inkscape:window-height="705"
     id="namedview44"
     showgrid="false"
     inkscape:zoom="9.4164592"
     inkscape:cx="50.376225"
     inkscape:cy="28.268095"
     inkscape:window-x="-8"
     inkscape:window-y="-8"
     inkscape:window-maximized="1"
     inkscape:current-layer="g3339" />
  <defs
     id="defs4">
    <filter
       id="filter3956">
      <feGaussianBlur
         stdDeviation="2.69984"
         id="feGaussianBlur7" />
    </filter>
    <filter
       height="1.21337"
       id="filter3763"
       width="1.18049"
       x="-0.090240002"
       y="-0.10668">
      <feGaussianBlur
         stdDeviation="6.89515"
         id="feGaussianBlur10" />
    </filter>
    <linearGradient
       gradientUnits="userSpaceOnUse"
       id="linearGradient5012"
       x1="92.562271"
       x2="-31.666"
       y1="333.78683"
       y2="25.534531"
       gradientTransform="matrix(1.03788,0,0,1.03788,215.57146,-17.511149)">
      <stop
         offset="0"
         stop-color="#6e0000"
         id="stop13" />
      <stop
         offset=".44731"
         stop-color="#b60000"
         id="stop15" />
      <stop
         offset=".84263"
         stop-color="#ad0000"
         id="stop17" />
      <stop
         offset="1"
         stop-color="#e90000"
         id="stop19" />
    </linearGradient>
    <linearGradient
       gradientTransform="matrix(0.49866,0.50081,0.56341,-0.44229,-436.90643,110.92588)"
       gradientUnits="userSpaceOnUse"
       id="linearGradient5014"
       x1="194.07765"
       x2="332.85156"
       y1="327.47653"
       y2="339.9415">
      <stop
         offset="0"
         stop-color="#f97373"
         id="stop22" />
      <stop
         offset="1"
         stop-color="#fff"
         stop-opacity="0"
         id="stop24" />
    </linearGradient>
  </defs>
  <g
     id="g4182"
     transform="matrix(1.2264402,0,0,1.2529344,-57.218627,-397.79343)">
    <g
       transform="matrix(0.64043375,0,0,0.62689133,-163.08947,80.930397)"
       id="g3339">
      <path
         inkscape:connector-curvature="0"
         d="m 338.85953,413.90373 c 1.39098,1.1e-4 2.44315,1.09191 3.15648,3.27553 1.42662,4.09426 2.44314,6.14139 3.04949,6.14139 0.46364,0 0.94515,-0.34112 1.44452,-1.02356 10.02234,-15.35348 19.29562,-27.77316 27.81983,-37.25813 2.21128,-2.45659 5.7245,-3.68489 10.53957,-3.68489 1.14129,0 1.90809,0.10242 2.30049,0.30705 0.39226,0.20473 0.58844,0.46073 0.58848,0.76768 -7e-5,0.4777 -0.58856,1.41604 -1.76549,2.8148 -13.76722,15.8316 -26.53611,32.54986 -38.30582,50.15561 -0.82036,1.2283 -2.4967,1.8424 -5.02904,1.8424 -2.56798,0 -4.08384,-0.10232 -4.54752,-0.30705 -1.2127,-0.51178 -2.63936,-3.12196 -4.27997,-7.83062 -1.85467,-5.22014 -2.78203,-8.49578 -2.78199,-9.82639 -1e-5,-1.43293 1.2483,-2.8148 3.74501,-4.14563 1.53363,-0.81883 2.88895,-1.22819 4.06596,-1.22829"
         id="path12"
         style="fill:#00cc0f;fill-opacity:0.94117647" />
      <rect
         style="fill:none;fill-opacity:1;stroke:#e6e6e6;stroke-width:3.18632054;stroke-miterlimit:4;stroke-dasharray:none;stroke-opacity:1"
         id="rect3799"
         width="60.39986"
         height="60.364269"
         x="329.23315"
         y="379.0798"
         rx="2.2936656"
         ry="2.4472003" />
    </g>
  </g>
</svg>
