<?xml version="1.0" encoding="UTF-8" standalone="no"?>
<svg
   xmlns:dc="http://purl.org/dc/elements/1.1/"
   xmlns:cc="http://creativecommons.org/ns#"
   xmlns:rdf="http://www.w3.org/1999/02/22-rdf-syntax-ns#"
   xmlns:svg="http://www.w3.org/2000/svg"
   xmlns="http://www.w3.org/2000/svg"
   xmlns:sodipodi="http://sodipodi.sourceforge.net/DTD/sodipodi-0.dtd"
   xmlns:inkscape="http://www.inkscape.org/namespaces/inkscape"
   width="640"
   height="480"
   id="svg3021"
   version="1.1"
   inkscape:version="0.48.4 r9939"
   sodipodi:docname="trash-309105.svg">
  <metadata
     id="metadata3055">
    <rdf:RDF>
      <cc:Work
         rdf:about="">
        <dc:format>image/svg+xml</dc:format>
        <dc:type
           rdf:resource="http://purl.org/dc/dcmitype/StillImage" />
        <dc:title></dc:title>
      </cc:Work>
    </rdf:RDF>
  </metadata>
  <sodipodi:namedview
     pagecolor="#ffffff"
     bordercolor="#666666"
     borderopacity="1"
     objecttolerance="10"
     gridtolerance="10"
     guidetolerance="10"
     inkscape:pageopacity="0"
     inkscape:pageshadow="2"
     inkscape:window-width="1920"
     inkscape:window-height="1018"
     id="namedview3053"
     showgrid="false"
     inkscape:zoom="1.66875"
     inkscape:cx="320"
     inkscape:cy="240"
     inkscape:window-x="-8"
     inkscape:window-y="-8"
     inkscape:window-maximized="1"
     inkscape:current-layer="svg3021" />
  <defs
     id="defs3023">
    <linearGradient
       id="svg_2"
       y2="1">
      <stop
         stop-color="#e5e5e5"
         offset="0"
         id="stop3026" />
      <stop
         stop-color="#999"
         offset="1"
         id="stop3028" />
    </linearGradient>
    <linearGradient
       id="svg_5"
       y2="1">
      <stop
         stop-color="#007f7f"
         offset="0"
         id="stop3031" />
      <stop
         stop-color="#ccc"
         offset="1"
         id="stop3033" />
    </linearGradient>
  </defs>
  <path
     inkscape:connector-curvature="0"
     style="fill:#ffffff;fill-rule:evenodd;stroke-width:5"
     id="path3037"
     d="m 395.66,137.39 c 6.7797,0 10.593,0.28249 11.441,0.84746 0.84744,0.56497 1.2712,45.904 1.2712,136.02 0,90.113 -0.14124,135.45 -0.42374,136.02 -0.56497,0.56494 -4.3785,0.98868 -11.441,1.2712 -7.3446,0.2825 -11.299,0 -11.864,-0.84747 -0.56497,-0.56494 -0.98868,-45.904 -1.2712,-136.02 -0.2825,-89.83 0,-135.17 0.84744,-136.02 0.56497,-0.84744 4.3785,-1.2712 11.441,-1.2712 z" />
  <path
     inkscape:connector-curvature="0"
     style="fill:#ffffff;fill-rule:evenodd;stroke-width:5"
     id="path3039"
     d="m 178.71,138.66 c 0.84746,-0.84744 4.661,-1.1299 11.441,-0.84744 6.7797,0.28247 10.452,0.70621 11.017,1.2712 0.84746,0.56497 1.1299,46.045 0.84746,136.44 -0.28249,90.395 -0.70622,135.88 -1.2712,136.44 -0.56497,0.56494 -4.3785,0.70621 -11.441,0.42371 -7.0621,-0.2825 -10.876,-0.70621 -11.441,-1.2712 -0.56497,-0.56497 -0.70621,-46.045 -0.42374,-136.44 0.28249,-90.113 0.70621,-135.45 1.2712,-136.02 z" />
  <path
     inkscape:connector-curvature="0"
     style="fill:#e6e6e6;fill-rule:evenodd;stroke-width:5"
     id="path3041"
     d="M 141,92.898 V 77.22 h 300 v 15.678 c 0,10.452 -0.2825,15.678 -0.84744,15.678 h -0.84747 c 0.2825,-0.28248 0.42374,-0.42373 0.42374,-0.42373 v -0.42373 h -297.46 v 0.42373 l 0.42374,0.42373 h -1.6949 V 92.898 z" />
  <path
     inkscape:connector-curvature="0"
     style="fill:#ffffff;fill-rule:evenodd;stroke-width:5"
     id="path3043"
     d="m 241,139.93 c 6.7797,0 10.593,0.28249 11.441,0.84746 0.56497,0.56497 0.98871,45.904 1.2712,136.02 0.28249,90.113 0.14125,135.45 -0.42372,136.02 -0.56499,0.56497 -4.3785,0.98868 -11.441,1.2712 -7.0622,0.2825 -10.876,0.14124 -11.441,-0.42374 -0.56497,-0.56494 -0.98869,-45.904 -1.2712,-136.02 -0.28249,-90.113 0,-135.59 0.84747,-136.44 0.56496,-0.84747 4.2373,-1.2712 11.017,-1.2712 z" />
  <path
     style="fill:#e6e6e6;fill-rule:evenodd;stroke-width:5"
     inkscape:connector-curvature="0"
     id="path3045"
     d="m 348.2,72.983 v 2.5424 l 0.4237,0.4237 v 0.42372 h -13.136 c -9.0396,0 -13.701,-1.1299 -13.983,-3.3898 -0.28247,-1.9774 -1.2712,-4.096 -2.9661,-6.3559 -1.1299,-2.2599 -2.5424,-3.9548 -4.2373,-5.0848 -1.6949,-1.4124 -3.9548,-2.6836 -6.7797,-3.8136 -2.5424,-1.1299 -5.9322,-1.6949 -10.17,-1.6949 -4.2373,0 -7.6271,0.56497 -10.17,1.6949 -2.8249,1.13 -5.0848,2.4011 -6.7797,3.8136 -1.9774,1.4124 -3.5311,3.1074 -4.661,5.0848 -1.4125,1.6949 -2.2599,3.8136 -2.5424,6.3559 -0.56497,2.2599 -5.226,3.3898 -13.983,3.3898 h -13.136 l 0.4237,-5.0847 c 0.56497,-3.1073 1.4124,-6.2147 2.5424,-9.322 1.4124,-3.3898 3.1074,-6.2147 5.0848,-8.4746 1.9774,-2.8249 4.2373,-5.226 6.7797,-7.2034 2.2599,-1.9774 5.3672,-4.096 9.322,-6.3559 3.9548,-1.6949 7.9096,-3.1074 11.864,-4.2373 3.6723,-1.13 8.7571,-1.6949 15.254,-1.6949 6.2147,0 11.441,0.56497 15.678,1.6949 4.2373,1.1299 8.1921,2.6836 11.864,4.661 3.6723,1.9774 7.0621,4.3785 10.17,7.2034 3.1074,3.1074 5.6497,6.2147 7.6271,9.322 1.9774,3.1073 3.2486,6.2147 3.8136,9.322 1.1299,2.8249 1.6949,5.0847 1.6949,6.7797 z" />
  <path
     inkscape:connector-curvature="0"
     style="fill:#ffffff;fill-rule:evenodd;stroke-width:5"
     id="path3047"
     d="m 343.97,138.66 c 6.7797,-0.28247 10.593,0 11.441,0.84747 0.84744,0.56497 1.2712,45.904 1.2712,136.02 0,90.113 -0.14124,135.45 -0.42374,136.02 -0.56497,0.84744 -4.3785,1.2712 -11.441,1.2712 -7.0622,0 -10.876,-0.14124 -11.441,-0.42374 -0.84744,-0.56494 -1.2712,-45.904 -1.2712,-136.02 0,-90.113 0.2825,-135.59 0.84747,-136.44 0.56497,-0.56497 4.2373,-0.98869 11.017,-1.2712 z" />
  <path
     inkscape:connector-curvature="0"
     style="fill:#ffffff;fill-rule:evenodd;stroke-width:5"
     id="path3049"
     d="m 292.27,139.93 c 6.7797,0 10.593,0.28249 11.441,0.84746 0.84747,0.56497 1.2712,45.904 1.2712,136.02 0,90.113 -0.14124,135.45 -0.42371,136.02 -0.56497,0.56497 -4.3785,0.98868 -11.441,1.2712 -7.0621,0.2825 -10.876,0.14124 -11.441,-0.42374 -0.84747,-0.56494 -1.2712,-45.904 -1.2712,-136.02 0,-90.113 0.28247,-135.59 0.84744,-136.44 0.56497,-0.84747 4.2373,-1.2712 11.017,-1.2712 z" />
  <path
     inkscape:connector-curvature="0"
     style="fill:#e6e6e6;fill-rule:evenodd;stroke-width:5"
     id="path3051"
     d="m 142.27,108.15 v -0.424 h 297.46 v 0.424 c 0,0 -0.14099,0.141 -0.42401,0.423 h -0.84698 c -0.565,0 -0.42401,1.695 0.423,5.085 1.13,3.107 1.695,51.977 1.695,146.61 0,94.35 -0.565,143.5 -1.695,147.46 -1.13,3.672 -2.825,7.344 -5.084,11.017 -2.26,3.39 -4.661,6.497 -7.204,9.322 -2.825,2.825 -5.932,5.226 -9.322,7.203 -3.39,1.978 -7.203,3.673 -11.44,5.085 -3.955,1.412 -41.808,2.119 -113.56,2.119 -71.469,0 -108.62,-0.28302 -111.44,-0.84799 -2.825,-0.565 -6.074,-1.554 -9.746,-2.966 -3.39,-1.412 -6.639,-3.249 -9.746,-5.508 -3.107,-2.26 -5.65,-4.52 -7.627,-6.78 -1.978,-2.26 -3.955,-5.085 -5.932,-8.475 -1.978,-3.39 -3.531,-7.062 -4.661,-11.017 -1.13,-3.672 -1.695,-52.118 -1.695,-145.34 0,-93.22 0.423,-141.95 1.271,-146.19 l 1.271,-5.932 0.424,-0.424 v -0.424 h -1.695 c -0.283,-0.282 -0.42401,-0.423 -0.42401,-0.423 z m 253.39,29.237 c 6.78,0 10.593,0.282 11.441,0.847 0.84702,0.565 1.271,45.904 1.271,136.02 0,90.113 -0.14099,135.45 -0.42398,136.02 -0.565,0.565 -4.378,0.98901 -11.441,1.271 -7.344,0.28302 -11.299,0 -11.864,-0.84698 -0.565,-0.565 -0.98901,-45.904 -1.271,-136.02 -0.28299,-89.831 0,-135.17 0.84702,-136.02 0.565,-0.847 4.379,-1.271 11.441,-1.271 z m -216.95,1.271 c 0.847,-0.847 4.661,-1.13 11.441,-0.847 6.779,0.282 10.452,0.70601 11.016,1.271 0.84799,0.56499 1.13,46.045 0.84799,136.44 -0.283,90.396 -0.70599,135.88 -1.271,136.44 -0.565,0.565 -4.379,0.70599 -11.441,0.42401 -7.062,-0.28302 -10.876,-0.70602 -11.441,-1.271 -0.565,-0.565 -0.70599,-46.046 -0.423,-136.44 0.28201,-90.113 0.70601,-135.45 1.271,-136.02 z m 165.25,0 c 6.78,-0.282 10.593,0 11.441,0.847 0.84698,0.565 1.271,45.904 1.271,136.02 0,90.113 -0.14102,135.45 -0.42401,136.02 -0.565,0.84802 -4.378,1.272 -11.44,1.272 -7.063,0 -10.876,-0.142 -11.441,-0.42398 -0.84799,-0.565 -1.271,-45.904 -1.271,-136.02 0,-90.113 0.28201,-135.59 0.84702,-136.44 0.565,-0.565 4.237,-0.98801 11.017,-1.271 z m -102.97,1.271 c 6.78,0 10.593,0.28299 11.441,0.84799 0.565,0.565 0.98801,45.904 1.271,136.02 0.282,90.113 0.14099,135.45 -0.42401,136.02 -0.56499,0.565 -4.378,0.98801 -11.441,1.271 -7.062,0.28201 -10.875,0.14102 -11.44,-0.42398 -0.565,-0.565 -0.989,-45.904 -1.271,-136.02 -0.283,-90.113 0,-135.59 0.847,-136.44 0.565,-0.847 4.237,-1.271 11.017,-1.271 z m 51.271,0 c 6.78,0 10.593,0.28299 11.441,0.84799 0.84698,0.565 1.271,45.904 1.271,136.02 0,90.113 -0.14099,135.45 -0.42401,136.02 -0.565,0.565 -4.378,0.98801 -11.44,1.271 -7.062,0.28201 -10.876,0.14102 -11.441,-0.42398 -0.84702,-0.565 -1.271,-45.904 -1.271,-136.02 0,-90.113 0.28198,-135.59 0.84698,-136.44 0.565,-0.847 4.238,-1.271 11.017,-1.271 z" />
</svg>
