<?xml version="1.0" encoding="UTF-8" standalone="no"?>
<svg
   xmlns:dc="http://purl.org/dc/elements/1.1/"
   xmlns:cc="http://creativecommons.org/ns#"
   xmlns:rdf="http://www.w3.org/1999/02/22-rdf-syntax-ns#"
   xmlns:svg="http://www.w3.org/2000/svg"
   xmlns="http://www.w3.org/2000/svg"
   xmlns:sodipodi="http://sodipodi.sourceforge.net/DTD/sodipodi-0.dtd"
   xmlns:inkscape="http://www.inkscape.org/namespaces/inkscape"
   version="1.1"
   id="svg2"
   viewBox="0 0 50.000001 50.000001"
   height="50"
   width="50"
   inkscape:version="0.91 r13725"
   sodipodi:docname="private.svg">
  <sodipodi:namedview
     pagecolor="#ffffff"
     bordercolor="#666666"
     borderopacity="1"
     objecttolerance="10"
     gridtolerance="10"
     guidetolerance="10"
     inkscape:pageopacity="0"
     inkscape:pageshadow="2"
     inkscape:window-width="1366"
     inkscape:window-height="705"
     id="namedview13"
     showgrid="false"
     showguides="false"
     inkscape:zoom="8"
     inkscape:cx="50.847458"
     inkscape:cy="22.457627"
     inkscape:window-x="-8"
     inkscape:window-y="-8"
     inkscape:window-maximized="1"
     inkscape:current-layer="svg2" />
  <defs
     id="defs4" />
  <metadata
     id="metadata7">
    <rdf:RDF>
      <cc:Work
         rdf:about="">
        <dc:format>image/svg+xml</dc:format>
        <dc:type
           rdf:resource="http://purl.org/dc/dcmitype/StillImage" />
        <dc:title></dc:title>
      </cc:Work>
    </rdf:RDF>
  </metadata>
  <path
     inkscape:connector-curvature="0"
     style="color:#000000;clip-rule:nonzero;display:inline;overflow:visible;visibility:visible;opacity:1;isolation:auto;mix-blend-mode:normal;color-interpolation:sRGB;color-interpolation-filters:linearRGB;solid-color:#000000;solid-opacity:1;fill:#e6e6e6;fill-opacity:1;fill-rule:nonzero;stroke:none;stroke-width:0.40000001;stroke-miterlimit:4;stroke-dasharray:none;stroke-opacity:1;color-rendering:auto;image-rendering:auto;shape-rendering:auto;text-rendering:auto;enable-background:accumulate"
     d="M 4.1666121,17.352743 C 3.0844972,17.352743 2.213,18.224241 2.213,19.306356 l 0,28.615068 c 0,1.082117 0.8714972,1.953616 1.9536121,1.953616 l 29.2387079,0 c 1.082115,0 1.952924,-0.871499 1.952924,-1.953616 l 0,-28.615068 c 0,-1.082115 -0.870809,-1.953613 -1.952924,-1.953613 l -29.2387079,0 z m 1.3299715,1.479509 26.5787664,0 c 0.983658,0 1.775133,0.792166 1.775133,1.775821 l 0,26.011632 c 0,0.983662 -0.791475,1.775826 -1.775133,1.775826 l -26.5787664,0 c -0.9836553,0 -1.7758216,-0.792164 -1.7758216,-1.775826 l 0,-26.011632 c 0,-0.983655 0.7921663,-1.775821 1.7758216,-1.775821 z"
     id="rect4196" />
  <g
     id="g3348"
     transform="matrix(0.06171432,0,0,0.06171432,-6.507711,0.6285808)"
     style="fill:#e6e6e6">
    <path
       id="rect4221"
       d="m 383.62571,4e-5 c -92.75575,0 -167.4236,74.66786 -167.4236,167.42364 l 0,106.1667 22.95736,0 0,-103.3529 c 0,-81.17033 65.33928,-146.52076 146.5096,-146.52076 l 28.66328,0 c 81.17033,0 146.52074,65.35043 146.52074,146.52076 l 0,103.3529 22.95742,0 0,-106.1667 C 583.81051,74.6679 509.13151,4e-5 416.37572,4e-5 l -32.75001,0 z"
       style="color:#000000;clip-rule:nonzero;display:inline;overflow:visible;visibility:visible;opacity:1;isolation:auto;mix-blend-mode:normal;color-interpolation:sRGB;color-interpolation-filters:linearRGB;solid-color:#000000;solid-opacity:1;fill:#e6e6e6;fill-opacity:1;fill-rule:nonzero;stroke:none;stroke-width:0.40000001;stroke-miterlimit:4;stroke-dasharray:none;stroke-opacity:1;color-rendering:auto;image-rendering:auto;shape-rendering:auto;text-rendering:auto;enable-background:accumulate"
       inkscape:connector-curvature="0" />
    <path
       id="path4226"
       d="m 388.36013,56.80171 c -65.93242,0 -119.00769,53.07515 -119.00769,119.00763 l 0,97.78104 16.32476,0 0,-95.78232 c 0,-57.69729 46.43712,-104.15683 104.13447,-104.15683 l 20.37808,0 c 57.69728,0 104.14561,46.45954 104.14561,104.15683 l 0,95.78232 16.32476,0 0,-97.78104 c 0,-65.93248 -53.08629,-119.00763 -119.01883,-119.00763 l -23.28116,0 z"
       style="color:#000000;clip-rule:nonzero;display:inline;overflow:visible;visibility:visible;opacity:1;isolation:auto;mix-blend-mode:normal;color-interpolation:sRGB;color-interpolation-filters:linearRGB;solid-color:#000000;solid-opacity:1;fill:#e6e6e6;fill-opacity:1;fill-rule:nonzero;stroke:none;stroke-width:0.40000001;stroke-miterlimit:4;stroke-dasharray:none;stroke-opacity:1;color-rendering:auto;image-rendering:auto;shape-rendering:auto;text-rendering:auto;enable-background:accumulate"
       inkscape:connector-curvature="0" />
  </g>
</svg>
