<?xml version="1.0" encoding="UTF-8" standalone="no"?>
<svg
   xmlns:dc="http://purl.org/dc/elements/1.1/"
   xmlns:cc="http://creativecommons.org/ns#"
   xmlns:rdf="http://www.w3.org/1999/02/22-rdf-syntax-ns#"
   xmlns:svg="http://www.w3.org/2000/svg"
   xmlns="http://www.w3.org/2000/svg"
   xmlns:sodipodi="http://sodipodi.sourceforge.net/DTD/sodipodi-0.dtd"
   xmlns:inkscape="http://www.inkscape.org/namespaces/inkscape"
   viewBox="0 0 60 60"
   id="svg2"
   version="1.1"
   inkscape:version="0.91 r13725"
   sodipodi:docname="write.svg">
  <metadata
     id="metadata32">
    <rdf:RDF>
      <cc:Work
         rdf:about="">
        <dc:format>image/svg+xml</dc:format>
        <dc:type
           rdf:resource="http://purl.org/dc/dcmitype/StillImage" />
        <dc:title></dc:title>
      </cc:Work>
    </rdf:RDF>
  </metadata>
  <sodipodi:namedview
     pagecolor="#ffff00"
     bordercolor="#666666"
     borderopacity="1"
     objecttolerance="10"
     gridtolerance="10"
     guidetolerance="10"
     inkscape:pageopacity="0"
     inkscape:pageshadow="2"
     inkscape:window-width="1366"
     inkscape:window-height="705"
     id="namedview30"
     showgrid="false"
     inkscape:zoom="7.8666667"
     inkscape:cx="14.361573"
     inkscape:cy="28.245366"
     inkscape:window-x="-8"
     inkscape:window-y="-8"
     inkscape:window-maximized="1"
     inkscape:current-layer="svg2" />
  <defs
     id="defs4">
    <linearGradient
       id="linearGradient6">
      <stop
         offset="0"
         id="stop8" />
      <stop
         offset="1"
         stop-color="#fff"
         id="stop10" />
    </linearGradient>
  </defs>
  <path
     d="m6.67859,5.11651h46.74473a2,2 0 0,1 2,2v46.38484a2,2 0 0,1 -2,2h-46.74473a2,2 0 0,1 -2-2v-46.38484a2,2 0 0,1 2-2"
     fill="#b3b3b3"
     fill-rule="evenodd"
     stroke="#4c4c4c"
     stroke-linejoin="round"
     stroke-width="3.75159"
     transform="matrix(.832981,.000000,.000000,.832981,-.379281,10.43050)"
     id="path12"
     style="fill:none;stroke:#ffffff;stroke-opacity:1" />
  <path
     d="m8.31443,23.54297h32.07678"
     fill="none"
     stroke="#4c4c4c"
     stroke-linecap="round"
     stroke-linejoin="round"
     stroke-width="3.125"
     id="path14"
     style="stroke:#ffffff;stroke-opacity:1" />
  <path
     d="m8.31443,31.89246h32.07678"
     fill="none"
     stroke="#4c4c4c"
     stroke-linecap="round"
     stroke-linejoin="round"
     stroke-width="3.125"
     id="path16"
     style="stroke:#ffffff;stroke-opacity:1" />
  <path
     d="m8.31443,40.24195h32.07678"
     fill="none"
     stroke="#4c4c4c"
     stroke-linecap="round"
     stroke-linejoin="round"
     stroke-width="3.125"
     id="path18"
     style="stroke:#ffffff;stroke-opacity:1" />
  <path
     d="m8.26623,48.59143h17.78357"
     fill="none"
     stroke="#4c4c4c"
     stroke-linecap="round"
     stroke-linejoin="round"
     stroke-width="3.125"
     id="path20"
     style="stroke:#ffffff;stroke-opacity:1" />
  <path
     d="m48.0974,30.86281-12.89689,9.38348 7.94665-13.81769 4.95023,4.43421z"
     fill="#595959"
     fill-rule="evenodd"
     stroke="#333"
     stroke-linecap="round"
     stroke-linejoin="round"
     stroke-width="3.16474"
     transform="matrix(.789955,.000000,.000000,.789955,-7.510137,11.84079)"
     id="path22"
     style="stroke:#ffffff;stroke-opacity:1;fill:#ffffff;fill-opacity:1" />
  <path
     d="m-56.32928,9.38724h6.54628v47.1332h-6.54628z"
     fill="#b3b3b3"
     fill-rule="evenodd"
     stroke="#333"
     stroke-linecap="round"
     stroke-linejoin="round"
     stroke-width="3.16474"
     transform="matrix(-.585893,-.529867,.529867,-.585893,-7.510137,11.84079)"
     id="path24"
     style="stroke:#ffffff;stroke-opacity:1;fill:#00cc00;fill-opacity:1" />
  <path
     d="m61.96634,18.72622a.6203,.6203 0 1,0 -1.2406,0 .6203,.6203 0 1,0 1.24056-2e-005l-.62026,2e-005z"
     fill="#333"
     fill-rule="evenodd"
     stroke="#333"
     stroke-width="2.33736"
     transform="matrix(-.793285,-.717427,.717427,-.793285,58.05658,99.66090)"
     id="path26"
     style="stroke:#ffffff;stroke-opacity:1;fill:#ffffff;fill-opacity:1" />
  <path
     d="m-54.66413,56.37362h3.34693a2.05792,2.02935 0 0,1 2.05792,2.02935 2.05792,2.02935 0 0,1 -2.05792,2.02935h-3.34693a2.05792,2.02935 0 0,1 -2.05792-2.02935 2.05792,2.02935 0 0,1 2.05792-2.02935"
     fill="#ccc"
     fill-rule="evenodd"
     stroke="#333"
     stroke-width="3.16474"
     transform="matrix(-.585893,-.529867,.529867,-.585893,-7.510137,11.84079)"
     id="path28"
     style="stroke:#ffffff;stroke-opacity:1;fill:#00cc00;fill-opacity:1" />
</svg>
